<svg width="108" height="77" viewBox="0 0 108 77" fill="none" xmlns="http://www.w3.org/2000/svg">
<path fill-rule="evenodd" clip-rule="evenodd" d="M67.6055 26.67C65.6581 11.6125 53.2118 0 38.1481 0C21.733 0 8.42593 13.7896 8.42593 30.8C8.42593 35.0239 9.24644 39.0492 10.7313 42.7141C4.68841 45.53 0.5 51.6581 0.5 58.7645V59.3022C0.5 69.0764 8.42357 77 18.1978 77H89.8022C99.5764 77 107.5 69.0764 107.5 59.3022V58.7644C107.5 50.6602 102.053 43.8283 94.6198 41.7303C94.6202 41.6802 94.6204 41.6301 94.6204 41.58C94.6204 31.6573 86.8579 23.6133 77.2824 23.6133C73.6989 23.6133 70.3693 24.7399 67.6055 26.67Z" fill="white"/>
</svg>
