<?xml version="1.0"?>
<svg xmlns="http://www.w3.org/2000/svg" xmlns:xlink="http://www.w3.org/1999/xlink" xmlns:svgjs="http://svgjs.com/svgjs" version="1.1" width="512" height="512" x="0" y="0" viewBox="0 0 512 512" style="enable-background:new 0 0 512 512" xml:space="preserve"><g>
<g xmlns="http://www.w3.org/2000/svg">
	<g>
		<g>
			<path d="M256,53.333c-64.698,0-117.333,52.635-117.333,117.333S191.302,288,256,288s117.333-52.635,117.333-117.333     S320.698,53.333,256,53.333z M256,74.667c22.622,0,43.164,8.19,59.589,21.328L256,155.583l-59.589-59.589     C212.836,82.857,233.378,74.667,256,74.667z M160,170.667c0-22.622,8.19-43.164,21.328-59.589l59.589,59.589l-59.589,59.589     C168.19,213.831,160,193.289,160,170.667z M256,266.667c-22.622,0-43.164-8.19-59.589-21.328L256,185.75l59.589,59.589     C299.164,258.477,278.622,266.667,256,266.667z M330.672,230.255l-59.589-59.589l59.589-59.589     C343.81,127.503,352,148.044,352,170.667C352,193.289,343.81,213.831,330.672,230.255z" fill="#ffffff" data-original="#000000" style=""/>
			<path d="M256,0C161.896,0,85.333,76.563,85.333,170.667c0,28.25,7.063,56.26,20.49,81.104L246.667,506.5     c1.875,3.396,5.448,5.5,9.333,5.5s7.458-2.104,9.333-5.5l140.896-254.813c13.375-24.76,20.438-52.771,20.438-81.021     C426.667,76.563,350.104,0,256,0z M387.51,241.448L256,479.292l-131.458-237.75c-11.698-21.646-17.875-46.156-17.875-70.875     c0-82.344,66.99-149.333,149.333-149.333s149.333,66.99,149.333,149.333C405.333,195.385,399.156,219.896,387.51,241.448z" fill="#ffffff" data-original="#000000" style=""/>
		</g>
	</g>
</g>
<g xmlns="http://www.w3.org/2000/svg">
</g>
<g xmlns="http://www.w3.org/2000/svg">
</g>
<g xmlns="http://www.w3.org/2000/svg">
</g>
<g xmlns="http://www.w3.org/2000/svg">
</g>
<g xmlns="http://www.w3.org/2000/svg">
</g>
<g xmlns="http://www.w3.org/2000/svg">
</g>
<g xmlns="http://www.w3.org/2000/svg">
</g>
<g xmlns="http://www.w3.org/2000/svg">
</g>
<g xmlns="http://www.w3.org/2000/svg">
</g>
<g xmlns="http://www.w3.org/2000/svg">
</g>
<g xmlns="http://www.w3.org/2000/svg">
</g>
<g xmlns="http://www.w3.org/2000/svg">
</g>
<g xmlns="http://www.w3.org/2000/svg">
</g>
<g xmlns="http://www.w3.org/2000/svg">
</g>
<g xmlns="http://www.w3.org/2000/svg">
</g>
</g></svg>
