<svg width="119" height="84" viewBox="0 0 119 84" fill="none" xmlns="http://www.w3.org/2000/svg">
<g clip-path="url(#clip0)">
<path fill-rule="evenodd" clip-rule="evenodd" d="M107.127 44.0945C111.23 44.0945 115.098 43.0702 118.5 41.2585C115.212 50.2367 107.905 57.213 98.8149 59.9064C97.0033 55.2657 93.1314 51.6564 88.3235 50.203C88.3246 50.1265 88.3252 50.0499 88.3252 49.9732C88.3252 40.9489 80.6462 33.6332 71.1738 33.6332C68.3302 33.6332 65.6483 34.2925 63.2872 35.4593C62.9021 32.3845 62.0308 29.4658 60.7551 26.7869C62.5744 11.6895 75.1792 0 90.4582 0C90.62 0 90.7814 0.00131042 90.9426 0.00392143C85.7704 4.61281 82.5025 11.3932 82.5025 18.9529C82.5025 32.8382 93.5274 44.0945 107.127 44.0945Z" fill="#FDB813"/>
<path fill-rule="evenodd" clip-rule="evenodd" d="M62.1651 38.2269C60.3756 24.5328 48.9384 13.9717 35.0959 13.9717C20.0116 13.9717 7.78335 26.5128 7.78335 41.983C7.78335 45.8386 8.54287 49.5121 9.91682 52.855C4.35344 55.461 0.5 61.1105 0.5 67.6601C0.5 76.6844 7.81564 84 16.8399 84H82.4853C91.5096 84 98.8253 76.6844 98.8253 67.6601C98.8253 60.1979 93.8232 53.9041 86.9891 51.9487C86.9896 51.8949 86.9898 51.841 86.9898 51.787C86.9898 42.7627 79.8567 35.4471 71.0575 35.4471C67.7645 35.4471 64.7049 36.4717 62.1651 38.2269Z" fill="white"/>
</g>
<defs>
<clipPath id="clip0">
<rect width="118" height="84" fill="white" transform="translate(0.5)"/>
</clipPath>
</defs>
</svg>
