<?xml version="1.0"?>
<svg xmlns="http://www.w3.org/2000/svg" xmlns:xlink="http://www.w3.org/1999/xlink" xmlns:svgjs="http://svgjs.com/svgjs" version="1.1" width="512" height="512" x="0" y="0" viewBox="0 0 512 512" style="enable-background:new 0 0 512 512" xml:space="preserve"><g><g xmlns="http://www.w3.org/2000/svg"><path d="m420.263 422c1.706-47.779 11.458-73.007 19.438-93.641 7.468-19.308 13.917-35.983 8.009-59.999-6.452-26.23-28.461-49.087-57.71-54.888v-114.685l-98.787-98.787h-291.213v512h512v-90zm-1.684-146.472c3.65 14.84-.082 24.491-6.857 42.01-8.412 21.749-19.67 50.895-21.468 104.463h-30.509c-1.8-53.426-13.039-82.671-21.438-104.496-6.771-17.593-10.5-27.284-6.886-41.977 4.099-16.662 20.384-33.528 43.579-33.528s39.48 16.866 43.579 33.528zm-118.579-224.315 38.787 38.787h-38.787zm-270 430.787v-452h240v90h90v93.472c-28.914 5.73-51.177 28.329-57.71 54.889-5.865 23.841.568 40.56 8.019 59.918 7.975 20.722 17.72 46.056 19.428 93.721h-89.737v60zm452 0c-6.169 0-206.949 0-212 0v-30h212z" fill="#ffffff" data-original="#000000" style=""/><path d="m60 182h120v30h-120z" fill="#ffffff" data-original="#000000" style=""/><path d="m60 242h180v30h-180z" fill="#ffffff" data-original="#000000" style=""/><path d="m105 362c-24.813 0-45 20.187-45 45s20.187 45 45 45 45-20.187 45-45-20.187-45-45-45zm0 60c-8.271 0-15-6.729-15-15s6.729-15 15-15 15 6.729 15 15-6.729 15-15 15z" fill="#ffffff" data-original="#000000" style=""/></g></g></svg>
