<svg width="108" height="97" viewBox="0 0 108 97" fill="none" xmlns="http://www.w3.org/2000/svg">
<path fill-rule="evenodd" clip-rule="evenodd" d="M38.1481 0C53.2118 0 65.6581 11.6315 67.6055 26.7137C70.3693 24.7805 73.6989 23.6521 77.2824 23.6521C86.8579 23.6521 94.6204 31.7092 94.6204 41.6482C94.6204 41.6981 94.6202 41.7479 94.6198 41.7977C102.053 43.8956 107.5 50.7276 107.5 58.8318V59.4286C107.5 69.2028 99.5764 77.1264 89.8022 77.1264H18.1978C8.42357 77.1264 0.5 69.2028 0.5 59.4286V58.8318C0.5 51.7259 4.68799 45.598 10.7304 42.7819C9.2461 39.1116 8.42593 35.0805 8.42593 30.8505C8.42593 13.8123 21.733 0 38.1481 0ZM91.6807 81.1958C92.0869 80.4631 93.0101 80.1983 93.7429 80.6045L93.8223 80.6485C94.5551 81.0547 94.8198 81.978 94.4136 82.7107L86.9393 96.1948C86.5331 96.9275 85.6099 97.1923 84.8771 96.7861L84.7977 96.7421C84.0649 96.3359 83.8002 95.4126 84.2064 94.6799L91.6807 81.1958ZM69.1329 80.6045C68.4001 80.1983 67.4769 80.4631 67.0707 81.1958L59.5964 94.6799C59.1902 95.4126 59.4549 96.3359 60.1877 96.7421L60.2671 96.7861C60.9999 97.1923 61.9231 96.9275 62.3293 96.1948L69.8036 82.7107C70.2098 81.978 69.9451 81.0547 69.2123 80.6485L69.1329 80.6045ZM16.7807 81.1958C17.1869 80.4631 18.1101 80.1983 18.8429 80.6045L18.9223 80.6485C19.6551 81.0547 19.9198 81.978 19.5136 82.7107L12.0393 96.1948C11.6331 96.9275 10.7099 97.1923 9.97711 96.7861L9.89769 96.7421C9.16494 96.3359 8.90019 95.4126 9.30636 94.6799L16.7807 81.1958ZM45.5929 80.6045C44.8601 80.1983 43.9369 80.4631 43.5307 81.1958L36.0564 94.6799C35.6502 95.4126 35.9149 96.3359 36.6477 96.7421L36.7271 96.7861C37.4599 97.1923 38.3831 96.9275 38.7893 96.1948L46.2636 82.7107C46.6698 81.978 46.4051 81.0547 45.6723 80.6485L45.5929 80.6045ZM53.7197 81.1444C54.1259 80.4117 55.0492 80.1469 55.7819 80.5531L55.9877 80.6672C56.7205 81.0734 56.9852 81.9966 56.579 82.7294L52.1403 90.7372C51.7341 91.4699 50.8108 91.7346 50.0781 91.3285L49.8723 91.2144C49.1395 90.8082 48.8748 89.885 49.2809 89.1522L53.7197 81.1444ZM82.5319 80.5531C81.7992 80.1469 80.8759 80.4117 80.4697 81.1444L76.031 89.1522C75.6248 89.885 75.8895 90.8082 76.6223 91.2144L76.8281 91.3285C77.5608 91.7346 78.4841 91.4699 78.8903 90.7372L83.3291 82.7294C83.7352 81.9966 83.4705 81.0734 82.7377 80.6672L82.5319 80.5531ZM30.1797 81.1444C30.5859 80.4117 31.5092 80.1469 32.2419 80.5531L32.4477 80.6672C33.1805 81.0734 33.4452 81.9966 33.0391 82.7294L28.6003 90.7372C28.1941 91.4699 27.2708 91.7346 26.5381 91.3285L26.3323 91.2144C25.5995 90.8082 25.3348 89.885 25.7409 89.1522L30.1797 81.1444Z" fill="white"/>
</svg>
