<svg width="108" height="104" viewBox="0 0 108 104" fill="none" xmlns="http://www.w3.org/2000/svg">
<path fill-rule="evenodd" clip-rule="evenodd" d="M38.1481 0C53.2118 0 65.6581 11.8601 67.6055 27.2387C70.3693 25.2675 73.6989 24.1169 77.2824 24.1169C86.8579 24.1169 94.6204 32.3324 94.6204 42.4667C94.6204 42.5132 94.6202 42.5596 94.6199 42.606C102.053 44.704 107.5 51.536 107.5 59.6402V60.9442C107.5 70.7184 99.5764 78.642 89.8022 78.642H18.1978C8.42357 78.642 0.5 70.7184 0.5 60.9442V59.6402C0.5 52.5384 4.68299 46.4137 10.7196 43.5953C9.24211 39.8602 8.42593 35.7594 8.42593 31.4568C8.42593 14.0837 21.733 0 38.1481 0ZM20.0416 86.4182C20.0416 85.5804 20.7207 84.9012 21.5585 84.9012H21.7346C22.5724 84.9012 23.2516 85.5804 23.2516 86.4182V94.6189C23.2516 95.4566 22.5724 96.1358 21.7346 96.1358H21.5585C20.7207 96.1358 20.0416 95.4566 20.0416 94.6189V86.4182ZM56.9248 83.7778C56.0871 83.7778 55.4079 84.4569 55.4079 85.2947V93.4954C55.4079 94.3332 56.0871 95.0123 56.9248 95.0123H57.1009C57.9387 95.0123 58.6179 94.3332 58.6179 93.4954V85.2947C58.6179 84.4569 57.9387 83.7778 57.1009 83.7778H56.9248ZM36.3732 94.2824C36.3732 93.4446 37.0523 92.7654 37.8901 92.7654H38.0662C38.904 92.7654 39.5832 93.4446 39.5832 94.2824V102.483C39.5832 103.321 38.904 104 38.0662 104H37.8901C37.0523 104 36.3732 103.321 36.3732 102.483V94.2824ZM72.9748 92.4444C72.1371 92.4444 71.4579 93.1236 71.4579 93.9614V102.162C71.4579 103 72.1371 103.679 72.9748 103.679H73.1509C73.9887 103.679 74.6679 103 74.6679 102.162V93.9614C74.6679 93.1236 73.9887 92.4444 73.1509 92.4444H72.9748ZM87.7895 85.2947C87.7895 84.4569 88.4686 83.7778 89.3064 83.7778H89.4825C90.3203 83.7778 90.9995 84.4569 90.9995 85.2947V93.4954C90.9995 94.3332 90.3203 95.0123 89.4825 95.0123H89.3064C88.4686 95.0123 87.7895 94.3332 87.7895 93.4954V85.2947Z" fill="white"/>
</svg>
