<svg width="118" height="114" viewBox="0 0 118 114" fill="none" xmlns="http://www.w3.org/2000/svg">
<g filter="url(#filter0_d)">
<path fill-rule="evenodd" clip-rule="evenodd" d="M43.1481 3C58.2118 3 70.6581 14.8693 72.6055 30.2597C75.3693 28.287 78.6989 27.1355 82.2824 27.1355C91.8579 27.1355 99.6204 35.3573 99.6204 45.4995C99.6204 45.5458 99.6202 45.5921 99.6199 45.6384C107.053 47.7364 112.5 54.5684 112.5 62.6726V64.0049C112.5 73.7791 104.576 81.7027 94.8022 81.7027H23.1978C13.4236 81.7027 5.5 73.7791 5.5 64.0049V62.6726C5.5 55.571 9.68279 49.4464 15.7191 46.6279C14.242 42.8902 13.4259 38.7866 13.4259 34.4811C13.4259 17.0946 26.733 3 43.1481 3ZM24.2736 97.1622C26.9597 97.1622 29.1373 94.9599 29.1373 92.2432C29.1373 89.5266 26.9597 87.3243 24.2736 87.3243C21.5875 87.3243 19.41 89.5266 19.41 92.2432C19.41 94.9599 21.5875 97.1622 24.2736 97.1622ZM46.16 102.081C46.16 104.798 43.9825 107 41.2964 107C38.6103 107 36.4327 104.798 36.4327 102.081C36.4327 99.3644 38.6103 97.1622 41.2964 97.1622C43.9825 97.1622 46.16 99.3644 46.16 102.081ZM58.8055 97.1622C61.4916 97.1622 63.6691 94.9599 63.6691 92.2432C63.6691 89.5266 61.4916 87.3243 58.8055 87.3243C56.1193 87.3243 53.9418 89.5266 53.9418 92.2432C53.9418 94.9599 56.1193 97.1622 58.8055 97.1622ZM81.1782 102.081C81.1782 104.798 79.0007 107 76.3146 107C73.6284 107 71.4509 104.798 71.4509 102.081C71.4509 99.3644 73.6284 97.1622 76.3146 97.1622C79.0007 97.1622 81.1782 99.3644 81.1782 102.081ZM94.7964 97.1622C97.4825 97.1622 99.66 94.9599 99.66 92.2432C99.66 89.5266 97.4825 87.3243 94.7964 87.3243C92.1102 87.3243 89.9327 89.5266 89.9327 92.2432C89.9327 94.9599 92.1102 97.1622 94.7964 97.1622Z" fill="white"/>
</g>
<defs>
<filter id="filter0_d" x="0.5" y="0" width="117" height="114" filterUnits="userSpaceOnUse" color-interpolation-filters="sRGB">
<feFlood flood-opacity="0" result="BackgroundImageFix"/>
<feColorMatrix in="SourceAlpha" type="matrix" values="0 0 0 0 0 0 0 0 0 0 0 0 0 0 0 0 0 0 127 0"/>
<feOffset dy="2"/>
<feGaussianBlur stdDeviation="2.5"/>
<feColorMatrix type="matrix" values="0 0 0 0 0.00485917 0 0 0 0 0.499124 0 0 0 0 0.608153 0 0 0 1 0"/>
<feBlend mode="normal" in2="BackgroundImageFix" result="effect1_dropShadow"/>
<feBlend mode="normal" in="SourceGraphic" in2="effect1_dropShadow" result="shape"/>
</filter>
</defs>
</svg>
