<svg width="108" height="107" viewBox="0 0 108 107" fill="none" xmlns="http://www.w3.org/2000/svg">
<path fill-rule="evenodd" clip-rule="evenodd" d="M54.3883 0C52.9919 0 51.86 1.13194 51.86 2.52826V13.5217C51.86 14.9181 52.9919 16.05 54.3883 16.05H54.6817C56.0781 16.05 57.21 14.9181 57.21 13.5217V2.52826C57.21 1.13194 56.0781 0 54.6817 0H54.3883ZM89.31 54.035C89.31 73.2407 73.7407 88.81 54.535 88.81C35.3293 88.81 19.76 73.2407 19.76 54.035C19.76 34.8293 35.3293 19.26 54.535 19.26C73.7407 19.26 89.31 34.8293 89.31 54.035ZM51.86 93.4783C51.86 92.0819 52.9919 90.95 54.3883 90.95H54.6817C56.0781 90.95 57.21 92.0819 57.21 93.4783V104.472C57.21 105.868 56.0781 107 54.6817 107H54.3883C52.9919 107 51.86 105.868 51.86 104.472V93.4783ZM93.9783 51.36C92.5819 51.36 91.45 52.4919 91.45 53.8883V54.1817C91.45 55.5781 92.5819 56.71 93.9783 56.71H104.972C106.368 56.71 107.5 55.5781 107.5 54.1817V53.8883C107.5 52.4919 106.368 51.36 104.972 51.36H93.9783ZM0.5 53.8883C0.5 52.4919 1.63194 51.36 3.02826 51.36H14.0217C15.4181 51.36 16.55 52.4919 16.55 53.8883V54.1817C16.55 55.5781 15.4181 56.71 14.0217 56.71H3.02826C1.63194 56.71 0.5 55.5781 0.5 54.1817V53.8883ZM91.6674 17.9289C93.9075 17.5946 95.7108 19.7437 94.9926 21.8917L93.3497 26.8051C92.5978 29.0539 89.6725 29.6096 88.1483 27.7932L84.6671 23.6445C83.1429 21.828 84.1981 19.0437 86.5434 18.6936L91.6674 17.9289ZM86.045 93.4226C88.193 94.1408 90.3421 92.3375 90.0078 90.0974L89.243 84.9734C88.893 82.6281 86.1087 81.5729 84.2922 83.0971L80.1435 86.5783C78.3271 88.1025 78.8828 91.0278 81.1316 91.7797L86.045 93.4226ZM20.6126 93.3511C18.3725 93.6854 16.5692 91.5363 17.2874 89.3883L18.9303 84.4749C19.6822 82.2261 22.6075 81.6704 24.1317 83.4868L27.6129 87.6355C29.1371 89.452 28.0819 92.2364 25.7366 92.5864L20.6126 93.3511ZM17.4043 17.9269C15.1642 17.5926 13.3609 19.7417 14.0791 21.8897L15.722 26.8031C16.4739 29.0519 19.3993 29.6076 20.9234 27.7911L24.4046 23.6424C25.9288 21.826 24.8736 19.0416 22.5283 18.6916L17.4043 17.9269Z" fill="#FDB813"/>
</svg>
