<svg width="117" height="89" viewBox="0 0 117 89" fill="none" xmlns="http://www.w3.org/2000/svg">
<path fill-rule="evenodd" clip-rule="evenodd" d="M73.34 1.77C73.34 0.792456 74.1325 0 75.11 0C76.0876 0 76.88 0.792458 76.88 1.77V10.0677C76.88 11.0452 76.0876 11.8377 75.11 11.8377C74.1325 11.8377 73.34 11.0452 73.34 10.0677V1.77ZM104.02 41.508C104.02 49.9235 100.327 57.4866 94.4545 62.7014C92.3564 60.7152 89.7337 59.2776 86.8159 58.6181C86.8162 58.5804 86.8163 58.5426 86.8163 58.5049C86.8163 49.352 79.42 41.9322 70.2963 41.9322C67.2758 41.9322 64.4446 42.7454 62.0085 44.1655C60.7788 36.7748 56.6867 30.3619 50.92 26.1241C56.0482 18.2424 65.0017 13.0214 75.1893 13.0214C91.1121 13.0214 104.02 25.7753 104.02 41.508ZM105.2 43.2074C105.2 42.2268 105.995 41.4318 106.976 41.4318H115.224C116.205 41.4318 117 42.2268 117 43.2074C117 44.1881 116.205 44.9831 115.224 44.9831H106.976C105.995 44.9831 105.2 44.1881 105.2 43.2074ZM33.8157 41.4318C32.835 41.4318 32.04 42.2268 32.04 43.2074C32.04 44.1881 32.835 44.9831 33.8157 44.9831H42.0644C43.0451 44.9831 43.84 44.1881 43.84 43.2074C43.84 42.2268 43.0451 41.4318 42.0644 41.4318H33.8157ZM107.757 20.2978C108.584 17.9128 106.566 15.5082 104.074 15.9089L101.408 16.3375C98.8496 16.7489 97.7157 19.7924 99.3815 21.7777L101.162 23.8999C102.828 25.8852 106.022 25.297 106.872 22.8487L107.757 20.2978ZM100.339 73.7221C101.521 73.1999 102.364 72.0065 102.332 70.591L102.31 69.6159C102.256 67.1981 99.8056 65.7628 97.7568 66.5764C99.2112 68.6233 100.138 71.0713 100.339 73.7221ZM48.506 76.4248C46.0136 76.8255 43.9959 74.4209 44.8233 72.0359L45.7083 69.485C46.5578 67.0367 49.752 66.4485 51.4178 68.4337L53.1986 70.556C54.8644 72.5413 53.7305 75.5848 51.1718 75.9962L48.506 76.4248ZM47.3253 13.5397C44.8336 13.1397 42.8166 15.5435 43.6432 17.9279L44.5273 20.4784C45.3763 22.9273 48.571 23.5159 50.237 21.5304L52.0181 19.4078C53.6842 17.4223 52.5497 14.3784 49.9906 13.9676L47.3253 13.5397Z" fill="#FDB813"/>
<g clip-path="url(#clip0)">
<path fill-rule="evenodd" clip-rule="evenodd" d="M62.1651 42.2268C60.3756 28.5327 48.9384 17.9717 35.0959 17.9717C20.0116 17.9717 7.78335 30.5127 7.78335 45.9829C7.78335 49.8385 8.54287 53.512 9.91682 56.8549C4.35344 59.4609 0.5 65.1104 0.5 71.66C0.5 80.6843 7.81564 87.9999 16.8399 87.9999H82.4853C91.5096 87.9999 98.8253 80.6843 98.8253 71.66C98.8253 64.1978 93.8232 57.904 86.9891 55.9486C86.9896 55.8948 86.9898 55.8409 86.9898 55.7869C86.9898 46.7626 79.8567 39.447 71.0575 39.447C67.7645 39.447 64.7049 40.4716 62.1651 42.2268Z" fill="white"/>
</g>
<defs>
<clipPath id="clip0">
<rect width="99" height="71" fill="white" transform="translate(0 18)"/>
</clipPath>
</defs>
</svg>
