<svg width="108" height="105" viewBox="0 0 108 105" fill="none" xmlns="http://www.w3.org/2000/svg">
<path fill-rule="evenodd" clip-rule="evenodd" d="M38.1481 0C53.2118 0 65.6581 11.3955 67.6055 26.1716C70.3693 24.2777 73.6989 23.1721 77.2824 23.1721C86.8579 23.1721 94.6204 31.0658 94.6204 40.8031L94.6202 40.8811L94.6198 40.9468C102.049 43.0207 107.5 49.839 107.5 57.9303C107.5 67.6676 99.6064 75.5613 89.869 75.5613H18.131C8.39365 75.5613 0.5 67.6676 0.5 57.9303C0.5 50.8348 4.69152 44.7182 10.7336 41.9216C9.24728 38.3237 8.42593 34.3716 8.42593 30.2245C8.42593 13.532 21.733 0 38.1481 0ZM91.5761 81.7436C91.9899 80.9971 92.9306 80.7273 93.6772 81.1412L93.7065 81.1574C94.4531 81.5713 94.7228 82.5119 94.309 83.2585L87.0439 96.3651C86.6301 97.1116 85.6894 97.3814 84.9428 96.9675L84.9135 96.9513C84.1669 96.5374 83.8972 95.5967 84.311 94.8502L91.5761 81.7436ZM20.9172 81.1412C20.1706 80.7273 19.2299 80.9971 18.8161 81.7436L11.551 94.8502C11.1372 95.5967 11.4069 96.5374 12.1535 96.9513L12.1828 96.9675C12.9294 97.3814 13.8701 97.1116 14.2839 96.3651L21.549 83.2585C21.9628 82.5119 21.6931 81.5713 20.9465 81.1574L20.9172 81.1412ZM78.2559 79.5337C78.6697 78.7871 79.6104 78.5174 80.357 78.9312L80.5127 79.0175C81.2593 79.4314 81.529 80.372 81.1152 81.1186L76.8241 88.86C76.4103 89.6066 75.4696 89.8763 74.723 89.4625L74.5673 89.3761C73.8207 88.9623 73.551 88.0216 73.9648 87.275L78.2559 79.5337ZM34.347 78.9312C33.6004 78.5174 32.6597 78.7871 32.2459 79.5337L27.9548 87.275C27.541 88.0216 27.8107 88.9623 28.5573 89.3761L28.713 89.4625C29.4596 89.8763 30.4003 89.6066 30.8141 88.86L35.1052 81.1186C35.519 80.372 35.2493 79.4314 34.5027 79.0175L34.347 78.9312ZM50.5133 78.7996C49.6922 78.7996 48.9495 79.287 48.6227 80.0402L43.8983 90.9304C43.308 92.2912 44.3055 93.8113 45.7889 93.8113H46.0666C47.4041 93.8113 48.3872 95.0656 48.0677 96.3643L46.609 102.294C46.1013 104.358 48.6718 105.746 50.1193 104.19L62.433 90.9473C63.6587 89.6291 62.7239 87.4832 60.9238 87.4832H59.3525C57.8396 87.4832 56.8424 85.9074 57.4901 84.5402L58.8154 81.7426C59.4631 80.3754 58.466 78.7996 56.9531 78.7996H50.5133Z" fill="white"/>
</svg>
